<svg width="24" height="24" viewBox="0 0 24 24" fill="none" xmlns="http://www.w3.org/2000/svg">
<path d="M14.1104 23.1655V11.9683C14.1104 8.91715 14.925 6.41406 16.5542 4.45898C18.1834 2.50391 20.3903 1.18571 23.1748 0.504395V5.43652C22.3158 5.70312 21.6196 6.04378 21.0864 6.4585C20.5532 6.84359 20.1385 7.30273 19.8423 7.83594C19.5461 8.36914 19.3535 8.99121 19.2646 9.70215C19.1758 10.3835 19.1313 11.1388 19.1313 11.9683V13.2124H23.1748V23.1655H14.1104ZM0.602539 23.1655V11.9683C0.602539 8.91715 1.41715 6.41406 3.04639 4.45898C4.67562 2.50391 6.88249 1.18571 9.66699 0.504395V5.43652C8.80794 5.70312 8.11182 6.04378 7.57861 6.4585C7.04541 6.84359 6.6307 7.30273 6.33447 7.83594C6.06787 8.36914 5.87533 8.99121 5.75684 9.70215C5.66797 10.3835 5.62354 11.1388 5.62354 11.9683V13.2124H9.66699V23.1655H0.602539Z" fill="white" fill-opacity="0.8"/>
</svg>
